<svg width="32" height="32" viewBox="0 0 32 32" fill="none" xmlns="http://www.w3.org/2000/svg">
  <defs>
    <linearGradient id="gradient" x1="0%" y1="0%" x2="100%" y2="100%">
      <stop offset="0%" style="stop-color:#10b981;stop-opacity:1" />
      <stop offset="100%" style="stop-color:#0d9488;stop-opacity:1" />
    </linearGradient>
  </defs>
  
  <!-- Heart shape -->
  <path d="M16 28c-1.2 0-2.4-.4-3.2-1.2C8.4 22.4 4 18.8 4 14c0-4.4 3.6-8 8-8 2.4 0 4.4 1.2 5.6 2.8C18.8 7.2 20.8 6 23.2 6c4.4 0 8 3.6 8 8 0 4.8-4.4 8.4-8.8 12.8-.8.8-2 1.2-3.2 1.2h-3.2z" fill="url(#gradient)"/>
  
  <!-- Plus sign in center -->
  <rect x="14" y="10" width="4" height="12" fill="white" rx="2"/>
  <rect x="10" y="14" width="12" height="4" fill="white" rx="2"/>
</svg>